<svg width="160" height="160" viewBox="0 0 160 160" xmlns="http://www.w3.org/2000/svg">
  <g>
    <g transform="translate(20,18) rotate(-18)" fill="#7a2e22" opacity="0.18">
      <path d="M18 0 C28 2 34 12 30 22 C27 30 18 36 8 32 C0 29 -4 20 0 12 C3 6 4 2 10 0 C12 -0.5 15 -0.5 18 0 Z" />
      <path d="M4 10 C-4 6 -8 -4 -2 -10 C2 -14 8 -12 8 -6 C8 -2 6 2 4 10 Z" />
      <circle cx="14" cy="14" r="3" fill="#f4ead9" opacity="0.9" />
    </g>
    <g transform="translate(100,98) rotate(162)" fill="#7a2e22" opacity="0.15">
      <path d="M18 0 C28 2 34 12 30 22 C27 30 18 36 8 32 C0 29 -4 20 0 12 C3 6 4 2 10 0 C12 -0.5 15 -0.5 18 0 Z" />
      <path d="M4 10 C-4 6 -8 -4 -2 -10 C2 -14 8 -12 8 -6 C8 -2 6 2 4 10 Z" />
      <circle cx="14" cy="14" r="3" fill="#f4ead9" opacity="0.9" />
    </g>
    <g transform="translate(114,26)" fill="#c48a2e" opacity="0.24">
      <circle cx="0" cy="-9" r="3" />
      <circle cx="8" cy="-4" r="3" />
      <circle cx="8" cy="5" r="3" />
      <circle cx="0" cy="10" r="3" />
      <circle cx="-8" cy="5" r="3" />
      <circle cx="-8" cy="-4" r="3" />
      <circle cx="0" cy="0" r="3.2" fill="#7a2e22" opacity="0.85" />
    </g>
    <g transform="translate(30,120)" fill="#c48a2e" opacity="0.24">
      <circle cx="0" cy="-9" r="3" />
      <circle cx="8" cy="-4" r="3" />
      <circle cx="8" cy="5" r="3" />
      <circle cx="0" cy="10" r="3" />
      <circle cx="-8" cy="5" r="3" />
      <circle cx="-8" cy="-4" r="3" />
      <circle cx="0" cy="0" r="3.2" fill="#7a2e22" opacity="0.85" />
    </g>
    <g stroke="#3f5b3d" stroke-width="1.8" fill="none" opacity="0.2">
      <path d="M70 6 q11 13 0 26" />
      <path d="M70 6 q-11 13 0 26" />
      <path d="M140 78 q11 13 0 26" />
      <path d="M140 78 q-11 13 0 26" />
    </g>
  </g>
</svg>
